# xmcd
#
# Track frame offsets: 
#        150
#        24460
#        40662
#        58037
#        74440
#        94710
#        109135
#        128360
#
# Disc length: 1936 seconds
#
# Revision: 5
# Processed by: cddbd v1.4PL0 Copyright (c) Steve Scherf et al.
# Submitted via: ExactAudioCopy v0.90b3
#
DISCID=61078e08
DTITLE=The Judds - Reflections
DYEAR=1994
DGENRE=Country
TTITLE0=Love Can Build A Bridge
TTITLE1=Guardian Angels
TTITLE2=The Sweetest Gift
TTITLE3=When King Jesus Calls His Children Home
TTITLE4=River Of Time
TTITLE5=Are The Roses Hot Blooming
TTITLE6=Grandpa (Tell Me 'bout The Good Old Days)
TTITLE7=Old Pictures
EXTD=
EXTT0=
EXTT1=
EXTT2=
EXTT3=
EXTT4=
EXTT5=
EXTT6=
EXTT7=
PLAYORDER=
